# xmcd CD database file
#
# Track frame offsets:
#	150
#	18497
#	40682
#	71833
#	91281
#	111917
#	135185
#	152038
#	174459
#	197701
#	214532
#	248229
#	274479
#
# Disc length: 3947 seconds
#
# Revision: 0
# Processed by: cddbd v1.5.2PL0 Copyright (c) Steve Scherf et al.
# Submitted via: CDex 1.51
#
DISCID=b30f690d
DTITLE=allman brothers band - hits cd
DYEAR=2008
DGENRE=Blues
TTITLE0=Revival
TTITLE1=Hoochie coochie man
TTITLE2=In memory of Elisabeth Reed
TTITLE3=Statesboro blues (live at fillmore east)
TTITLE4=Done somebody wrong (live at fillmore east)
TTITLE5=Blue skye
TTITLE6=Trouble no more (live from eat a peach)
TTITLE7=One way out (live from eat a peach)
TTITLE8=Southbound
TTITLE9=Crazy love
TTITLE10=Jessica
TTITLE11=Can't lose what you never had
TTITLE12=Ramblin' man
EXTD=YEAR: 2008
EXTT0=
EXTT1=
EXTT2=
EXTT3=
EXTT4=
EXTT5=
EXTT6=
EXTT7=
EXTT8=
EXTT9=
EXTT10=
EXTT11=
EXTT12=
PLAYORDER=
